<?xml version="1.0" encoding="utf-8"?>
<!DOCTYPE svg PUBLIC "-//W3C//DTD SVG 1.1//EN" "http://www.w3.org/Graphics/SVG/1.1/DTD/svg11.dtd">
<svg version="1.1" id="Layer_1" xmlns="http://www.w3.org/2000/svg" xmlns:xlink="http://www.w3.org/1999/xlink" x="0px" y="0px"
	 viewBox="0 0 1430.8503 1773.6371" enable-background="new 0 0 1430.8503 1773.6371" xml:space="preserve">
<g>
	<g>
		<path fill="#FF0000" d="M1015.5181,565.7115c-10.9856,14.2367-33.341,6.2436-30.0723-12.662
			c6.5068-37.6343-2.7969-117.4119-24.2689-170.937c-33.3459-80.3385-47.6583-173.0473-20.0482-222.1126
			c37.0679-65.8722,113.5725-93.3924,180.4335-56.979c84.4349,45.9844,54.946,97.4166,80.3685,140.1613
			c11.6515,19.5903,38.6515,14.8421,63.6617,14.4206c62.6066-1.0552,117.6511,71.7513,85.9961,138.2268
			c-39.7856,67.9446-102.5603,101.157-185.1818,112.9028C1080.0699,521.0065,1030.3751,546.4574,1015.5181,565.7115z"/>
		<path opacity="0.8" fill="#FFFFFF" d="M1074.5337,207.8726c11.9578,8.1717,17.4384,23.1519,13.7598,37.1602
			c-8.6729,33.0265-23.2406,40.356-45.6927,40.356c-28.3607,0-51.3515-32.2816-51.3515-72.103s23.0731-74.2604,51.3515-72.103
			C1074.8712,143.6448,1053.2919,193.3562,1074.5337,207.8726z"/>
		<g>
			<path fill="#202020" d="M671.395,752.5061c-0.428,3.6224-1.3068,3.6113-0.6523,7.2964c-3.4293-2.7592,2.4636,2.316,1.1976,1.7377
				C672.8071,758.8652,672.01,751.5898,671.395,752.5061C671.2964,753.3411,671.6111,752.1841,671.395,752.5061z"/>
			<path fill="#202020" d="M675.3967,750.2046c-0.1403-2.1002-0.591-7.1171-1.633-7.0493
				c-0.9384,2.8907-1.9616,5.9782-2.0302,8.4936c0.2075-1.3524,1.3472,1.2283,2.1194-1.5982
				c0.3189,1.0883,0.7227,2.1442,1.2112,3.1677C677.3027,752.7697,678.7394,746.9818,675.3967,750.2046z"/>
			<path fill="#202020" d="M671.7335,751.6489c-0.0036,0.0181-0.0095,0.0475-0.0137,0.0684
				C671.724,751.6964,671.7299,751.6671,671.7335,751.6489z"/>
			<path fill="#202020" d="M869.8717,640.7604c3.7256-2.3004-6.5161,2.9332-6.0726,2.6266
				c0.9833-0.3386,1.4771-0.1008,1.4815,0.7136c-0.3813-0.0673,6.0704-2.9419,4.4167-0.619c0.5674-1.0256,2.212-4.346,2.6085-5.5145
				C871.452,638.861,870.6406,639.7921,869.8717,640.7604C870.4431,640.4077,871.7157,639.691,869.8717,640.7604z"/>
			<path fill="#202020" d="M1000.1902,555.5085c-0.6956,0.7186-0.6912,0.9287-0.4975,1.0026
				C999.8986,556.1948,1000.0782,555.8724,1000.1902,555.5085z"/>
			<path fill="#202020" d="M872.8783,636.6978l0.7633-1.6992C873.2693,635.561,873.0001,636.1566,872.8783,636.6978z"/>
			<path fill="#202020" d="M871.8659,656.592C872.03,656.9294,872.8953,654.8304,871.8659,656.592
				C871.8917,656.645,871.9908,656.3782,871.8659,656.592z"/>
			<path fill="#202020" d="M899.9965,615.5522c0.1241-0.1069,0.229-0.1974,0.3774-0.3253
				C900.2255,615.3279,900.1039,615.4395,899.9965,615.5522z"/>
			<path fill="#202020" d="M856.1654,672.0313c5.0488-3.8542,1.3358-2.5237,5.5257-7.1215
				C858.2682,665.0438,857.2673,669.6888,856.1654,672.0313z"/>
			<path fill="#202020" d="M966.988,590.0926l0.0363,0.1149C967.029,590.155,967.0117,590.1205,966.988,590.0926z"/>
			<path fill="#202020" d="M967.1784,590.6785l-0.1541-0.4711C967.0128,590.5048,966.5753,591.095,967.1784,590.6785z"/>
			<path fill="#202020" d="M872.8659,637.797C872.1068,635.715,872.2949,637.9555,872.8659,637.797
				C872.7709,637.5363,872.6668,637.8523,872.8659,637.797z"/>
			<path fill="#202020" d="M872.2043,641.8455c-1.2963,1.0307-2.2316,1.1456-2.928,2.7328
				C870.2524,643.6674,871.2284,642.7564,872.2043,641.8455z"/>
			<path fill="#202020" d="M895.7607,617.153c6.0214-4.0588-2.809,5.748,4.2358-1.6008c-3.5623,3.0359-0.9003-2.6396-4.6346,0.188
				c0.4254-1.9185,1.6048-3.1275,3.5383-3.6271c0.8245,1.0323,0.705,2.0715-0.3586,3.1173c3.114-2.5125,7.9974-5.9197,9.7234-9.5855
				c-0.897-2.0144-12.1191,7.5606-13.6216,9.3297c0.1094-0.6658,0.2188-1.3315,0.3282-1.9973
				c-2.5049,8.9647-17.9788,6.826-21.33,22.0212c1.1664-1.7739,2.7379-0.7685,1.9022,1.2258
				c0.2813-1.3664,0.9747-2.4852,2.0802-3.3565c-0.6824,1.4819,23.2507-18.1645,15.3102-11.5818
				C899.3326,617.9071,895.597,620.6107,895.7607,617.153z"/>
			<path fill="#202020" d="M885.9174,627.247c0.1741,0.0046,0.332-0.0281,0.492-0.0653
				C886.2935,627.1499,886.1423,627.1622,885.9174,627.247z"/>
			<path fill="#202020" d="M892.4985,621.5174C892.5137,621.7173,893.6,620.9341,892.4985,621.5174
				C892.5019,621.5616,892.6075,621.4597,892.4985,621.5174z"/>
			<path fill="#202020" d="M875.2297,639.1525C874.1307,642.0635,875.2962,639.1642,875.2297,639.1525
				C875.0685,639.5797,875.4271,639.1871,875.2297,639.1525z"/>
			<path fill="#202020" d="M873.2974,638.1472C872.7277,637.216,872.9977,638.1658,873.2974,638.1472
				C873.2974,638.1472,873.0756,638.161,873.2974,638.1472z"/>
			<path fill="#202020" d="M919.6559,612.9695l0.3503-0.4943C919.7307,612.6746,919.6575,612.83,919.6559,612.9695z"/>
			<path fill="#202020" d="M902.2109,615.2225c-0.8471,0.584-15.8735,10.5403-15.5186,13.072
				c1.33-1.0698,1.7809-1.1671,1.353-0.2917c1.5153-0.6261,2.75-1.6038,3.7042-2.9329c0.1083,0.4609,0.0975,0.9169-0.0325,1.3679
				c1.4502-1.4555,15.3182-10.7821,14.4256-12.1628C895.7878,622.8648,906.4658,614.6555,902.2109,615.2225z"/>
			<path fill="#202020" d="M878.1196,637.295c0.1154-0.0513,0.2548-0.145,0.3573-0.1758
				C878.3708,637.1714,878.2399,637.2358,878.1196,637.295z"/>
			<path fill="#202020" d="M851.6243,642.2059c4.48-5.7218,13.7369-9.6358,20.982-12.8372c0.0732,0.0832,0.3873,3.2839-1.176,4.1426
				c-0.0327-0.8352,0.0868-1.6501,0.3586-2.4446c-6.5648,3.772-5.7773,7.205-10.8699,11.5822
				c-1.1465-1.4422-2.6421-1.7169-4.4868-0.824c-1.7279,1.01,7.2393-5.1526,5.5386-5.8677
				c-3.9028,3.0787-5.1045,3.8523-3.605,2.3207C857.9297,638.4587,852.1111,643.1202,851.6243,642.2059z M853.6638,640.7347
				l1.4426-0.543C854.645,640.0977,854.1434,640.3668,853.6638,640.7347z"/>
			<path fill="#202020" d="M684.7984,734.0676c-0.1223,0.075-0.2617,0.1604-0.3745,0.2293
				C684.5455,734.2802,684.673,734.1815,684.7984,734.0676z"/>
			<path fill="#202020" d="M808.652,685.2617l-0.8823,0.2789C808.128,685.4675,808.4062,685.368,808.652,685.2617z"/>
			<path fill="#202020" d="M791.0158,697.907l-1.1655,0.8379C790.3542,698.5456,790.7033,698.2509,791.0158,697.907z"/>
			<path fill="#202020" d="M691.7098,727.4017C691.7661,727.3074,691.9792,726.9507,691.7098,727.4017L691.7098,727.4017z"/>
			<path fill="#202020" d="M749.711,705.298c-0.2305-0.0977-0.481-0.1763-0.8043-0.204
				C748.9854,705.2565,749.2808,705.3131,749.711,705.298z"/>
			<path fill="#202020" d="M791.2299,697.7522C791.1423,697.7472,790.7047,698.0566,791.2299,697.7522
				C791.1912,697.75,791.2299,697.7522,791.2299,697.7522z"/>
			<path fill="#202020" d="M819.1441,686.7869c0.1618-0.1328,0.3127-0.244,0.4802-0.4003
				C819.3793,686.5298,819.2464,686.6597,819.1441,686.7869z"/>
			<path fill="#202020" d="M816.0057,682.5683c0.1816-0.1191,0.3499-0.2441,0.4686-0.3724L816.0057,682.5683z"/>
			<path fill="#202020" d="M846.6155,672.6931l1.015-0.7661C847.0893,672.216,846.8018,672.4626,846.6155,672.6931z"/>
			<path fill="#202020" d="M819.4914,682.3893c0.0348-0.1044,0.0708-0.2067,0.084-0.301
				C819.4388,682.2078,819.4038,682.3379,819.4914,682.3893z"/>
			<path fill="#202020" d="M676.2458,736.4412C676.2737,736.3948,676.0264,735.9388,676.2458,736.4412
				C676.2595,736.4185,676.2458,736.4412,676.2458,736.4412z"/>
			<path fill="#202020" d="M676.9563,740.184c-0.1283,0.2941-0.2612,0.5987-0.3921,0.8988
				C676.7662,740.7832,676.9055,740.4578,676.9563,740.184z"/>
			<path fill="#202020" d="M732.1848,706.9667c-0.3725-0.1606-1.1667-0.2509-0.9199-0.6306
				C730.7935,706.863,731.0895,707.7196,732.1848,706.9667z"/>
			<path fill="#202020" d="M671.0267,724.8006c0.0486,0.3223,0.0208,0.6478-0.009,0.9704
				C671.1331,725.2188,671.2492,724.7384,671.0267,724.8006z"/>
			<path fill="#202020" d="M671.0176,725.771c-0.0567,0.2735-0.1198,0.5616-0.1497,0.8195
				C670.9409,726.3201,670.9911,726.0433,671.0176,725.771z"/>
			<path fill="#202020" d="M736.1242,690.4785c0.1097,0.0972,0.2581,0.163,0.4315,0.15
				C736.4454,690.4062,736.2999,690.3909,736.1242,690.4785z"/>
			<path fill="#202020" d="M675.9346,741.6234c0.8737,1.2391,1.6653,7.7423,3.42,5.9662c0.985-2.5854,1.3938-5.2581,1.2265-8.0182
				c-2.7869,6.7104-4.2963,5.2463-0.6857-0.0475C677.0748,743.3373,676.9702,741.7216,675.9346,741.6234
				C676.2115,742.0161,676.1613,741.6449,675.9346,741.6234z"/>
			<path fill="#202020" d="M668.8365,733.9121C668.7935,734.0289,668.6173,734.5073,668.8365,733.9121L668.8365,733.9121z"/>
			<path fill="#202020" d="M836.3199,651.864l0.1471-0.55C836.2723,651.6232,836.2442,651.7859,836.3199,651.864z"/>
			<path fill="#202020" d="M674.9629,734.7242l-0.0018,0.0027C674.9681,734.6959,674.9722,734.6902,674.9629,734.7242z"/>
			<path fill="#202020" d="M827.9351,655.748c-0.0003-0.0323-0.0026-0.0688,0.0036-0.1105
				C827.9232,655.6836,827.9374,655.7144,827.9351,655.748z"/>
			<path fill="#202020" d="M835.9423,679.346c0.0381,0.04,0.0636,0.0837,0.1234,0.1136
				C836.2259,679.3123,836.1131,679.3065,835.9423,679.346z"/>
			<path fill="#202020" d="M827.9737,655.8483c-0.0145-0.0314-0.034-0.0602-0.0386-0.1003
				C827.9448,655.7857,827.9453,655.8254,827.9737,655.8483z"/>
			<path fill="#202020" d="M787.7895,676.5201c0,0,0.1994,0.1417,0.4738,0.248
				C788.3112,676.6392,788.1877,676.5494,787.7895,676.5201z"/>
			<path fill="#202020" d="M796.7971,675.1888c0.0677,0.0189,0.1121,0.0428,0.1963,0.0596L796.7971,675.1888z"/>
			<path fill="#202020" d="M735.5881,711.3654c0.4194-0.0983,0.7223-0.2122,0.9717-0.332
				C736.2499,711.0892,735.9235,711.1834,735.5881,711.3654z"/>
			<path fill="#202020" d="M827.9387,655.6375c0.0332-0.1499,0.0994-0.3206,0.2311-0.5542
				C828.0226,655.3357,827.9611,655.5053,827.9387,655.6375z"/>
			<path fill="#202020" d="M776.5786,686.2945C776.906,685.8469,776.6979,686.1315,776.5786,686.2945L776.5786,686.2945z"/>
			<path fill="#202020" d="M771.8129,686.8079c1.3465-1.9548-4.3925,1.7106-4.3995,2.1158
				c5.0907-1.7891,6.3773-0.1541,11.1553-1.8196C777.1064,686.7194,774.3675,685.5179,771.8129,686.8079
				C771.9303,686.6374,775.5523,684.9196,771.8129,686.8079z"/>
			<path fill="#202020" d="M772.0161,686.3486c0.2208-0.1413,0.407-0.2897,0.5363-0.4578
				C772.1938,686.0154,772.0864,686.1712,772.0161,686.3486z"/>
			<path fill="#202020" d="M755.7071,688.8849c-0.1901,0.0899-0.3933,0.1985-0.6435,0.3563
				C755.1875,689.1726,755.4622,689.0205,755.7071,688.8849z"/>
			<path fill="#202020" d="M867.4144,645.3856C867.1266,645.0484,862.0964,647.2837,867.4144,645.3856
				C867.1851,645.117,867.4144,645.3856,867.4144,645.3856z"/>
			<path fill="#202020" d="M714.0067,706.4291C715.1268,706.121,714.9573,705.6462,714.0067,706.4291
				C714.2586,706.3598,714.2169,706.256,714.0067,706.4291z"/>
			<path fill="#202020" d="M770.1263,690.0345c0.3771-0.2543,0.5227-0.4454,0.5825-0.6126
				C770.4596,689.5687,770.2445,689.7542,770.1263,690.0345z"/>
			<path fill="#202020" d="M713.0734,704.4897C711.9102,704.1561,707.3013,704.5169,713.0734,704.4897
				C712.665,704.3726,711.926,704.4951,713.0734,704.4897z"/>
			<path fill="#202020" d="M710.3249,705.253l0.0459-0.0375C710.3527,705.2231,710.3409,705.2398,710.3249,705.253z"/>
			<path fill="#202020" d="M868.8215,645.0458c2.0323-1.2182,5.6197-5.9966,9.2981-7.7507
				c-3.5093,1.9614,2.8569,1.0249,4.1597-0.7697c-1.6052-0.8347-1.0606,0.9802,0.9153-2.8413
				c0.1985,1.1491-0.246,2.0767-1.3337,2.7827c3.8684-4.3013,6.9228-0.9011,9.7317-2.7438
				c-3.3513-0.4595,19.1097-14.9175,18.738-16.0632c-1.1844,0.6757-1.9253,1.6652-2.2224,2.9681
				c-0.7646-0.5606-1.618-0.7997-2.5601-0.7174c2.0421-1.5139,4.2476-2.733,6.6165-3.6573
				c3.3157-0.4679,16.5795-7.6509,16.5478-7.1336c3.0585-1.5889,6.0505-5.7913,8.32-7.9647
				c-0.9398,0.902-1.2377,1.9365-0.8939,3.1033c1.4576-1.3872,2.5321-3.9988,1.5984,0.8007
				c2.7883-0.8783,5.6568-6.1854,8.1884-8.3084c-0.0737-0.4287,20.0829-17.2575,27.1616-20.9932
				c-0.4484,0.428-0.7582,0.943-0.9297,1.5449c1.3318-1.8014,6.4684-5.8278,6.907-3.775
				c0.0806,0.0732,15.2969-14.0323,17.8428-15.8633c-1.3196,0.8726-1.7706,1.9909-1.3527,3.3548
				c4.2858-3.6904,8.0024-9.5276,13.332-12.4587c-3.3614,5.6392-1.562,4.5951-3.158,8.5025
				c3.2191-0.6964,2.3248-0.8805,4.191-2.8077c-2.5743,7.0477-8.8085,7.3339-12.0139,10.9246
				c0.5106,0.8018,1.106,0.6723,1.7863-0.3885c-0.0821-0.1559-17.5273,15.0256-17.2912,14.7671
				c0.1756-1.626-12.8222,10.9602-13.2844,11.4478c0.4252-2.0449,1.4745-3.7361,3.148-5.0736
				c-1.0271-3.2549-3.8957,11.8313-0.3218-1.6076c-3.6319,2.0604-5.8287,5.877-8.6358,8.8799
				c1.819,0.6116,2.9597,0.0652,3.4221-1.6392c0.3896,0.4943,0.897,0.5938,1.522,0.2983
				c-8.1024,5.6127-24.3197,11.7443-28.5833,21.9667c0.3821-0.9243,0.8565-1.8003,1.4233-2.628
				c-0.6929,1.1763-1.6857,1.8618-2.9785,2.0564c4.7603-2.4787-1.127-0.3477,0.4838-2.0084
				c-9.6918,6.7036-1.2806,3.2466-1.1288,3.0965c-2.1786,3.6688-6.0706,5.0466-8.0686,6.4617
				c1.0833-0.5599-7.9669,2.1735-7.4601,5.4882c-1.6069,0.1796,2.3477-2.8851-0.5595-2.3287
				c1.3655-0.9702,2.4971-2.1565,3.3948-3.559c-2.3413,2.3252-24.4525,18.8679-24.775,18.2433
				c0.6373-0.2973,1.2975-0.5285,1.9805-0.6937c-3.8604,8.819-25.4322,15.8384-33.4108,23.3423
				c1.2977,1.5499,5.1373-4.5082,6.7336-4.2496c-2.1111,2.682-4.5797,4.9855-7.4058,6.9105
				c3.2838-0.1598,6.2581-1.2278,8.923-3.2042c-2.1885,0.4866-2.2063,0.2537-0.0533-0.6987
				c-0.6935-0.0338-1.387-0.0675-2.0805-0.1013c4.2988-1.7909,3.0558-3.1479,3.7799-4.9451
				c4.8939-0.6262,8.1934-4.6485,8.1054-4.5587c0.6149-0.762,1.2297-1.524,1.8445-2.286c3.2704-0.0836,2.2655-0.2552,7.1103-3.4217
				c-0.6893,3.3923-5.1837,7.8336-9.4313,7.2601c0.9526,0.3067,1.0735,0.8618,0.363,1.6652
				c1.2377-0.8314,2.5579-1.5023,3.9608-2.0129c-6.7628,3.1602-11.8362,9.2412-14.771,10.9466
				c-0.4442,0.2581-7.0371,1.6066-8.6501,4.201c-0.5524-0.66-0.5885-1.3597-0.1084-2.0988c-2.2034,0.4169-3.1272,2.899-3.5465,4.455
				c2.2662-0.8665-2.205-2.9562-2.1016-0.3871c-1.2271-2.151,5.2448-6.4953,3.5787-7.6814
				c-0.1248,0.7057-15.6173,10.7028-14.9424,8.7568c0.7169,0.9191,0.9528-0.4328,0.9642-0.6674
				c-3.2764,2.2321-3.4601,1.9452-3.9267-1.5975c-4.2664,4.7123-11.8312,6.2221-11.6829,12.1392
				c0.6531-1.2411,9.9507-3.1463,3.9399-3.1044c0.7598-1.3609,5.606-3.2644,7.4446-3.9275
				c-0.185,1.1309-0.8016,1.9907-1.8499,2.5793c0.963,0.9257,4.2466-2.7162,4.9633-2.7226
				c-0.408,0.0037-3.6326,4.5966-4.3126,5.2061c-3.6021-1.0193-5.5457,3.1553-11.0728,4.796c2.6102-1.5913-1.3474-1.4-3.1603,0.6298
				c-1.2005-0.5762-1.0493-1.0881,0.4537-1.5356c0.67,2.5933-25.8015,12.1187-29.4421,12.0606
				c1.2045-0.6914,1.559-1.6318,1.0634-2.8214c7.4888,3.07,5.8145-3.8632,12.8552-5.4905c0.9901-4.764-2.6627,4.5956-2.1487,4.6003
				c0.3768-0.5076,11.5527-5.0381,10.3229-6.4383c-2.488,1.0283-5.0198,1.9345-7.5956,2.7187
				c0.3262-2.6137,1.3542-3.9123,3.0841-3.8958c-0.0872-1.2043-0.5314-2.2725-1.3324-3.2045
				c-1.6358,1.4632-3.4776,2.5929-5.5255,3.3891c0.9071,1.0295,1.9363,1.0309,3.0875,0.0041
				c-2.4914,0.7101-3.5234,1.9235-7.3537,2.6934c5.5551-2.4926-13.2276,5.1263-14.9418,4.8729
				c-0.7514,7.632,6.9731-1.5847,7.9379-2.6255c-2.1749-0.5633,3.486,1.0754,3.2874,0.2812
				c-3.9827,2.0748-4.5994,2.9283-1.8502,2.5602c-1.2908,0.589-2.6434,0.9578-4.0581,1.1063
				c0.6549,0.7086,0.2656,1.1363-1.1677,1.283c1.6076-0.8499,3.1473-0.8228,4.6192,0.081
				c-2.1468,2.4652-14.5831,5.7632-17.3713,6.9778c0.8654-1.9092,5.3289-3.0858,7.2009-5.2905
				c-2.3868,2.0842-5.8521,2.9113-7.8627,3.8414c-1.9581-0.7327,9.545-6.8984,9.5519-6.9145
				c-3.7189,0.8552-7.3729,1.9305-10.962,3.226c-1.5893,12.0888-0.5964,1.9747-8.7765,8.0964
				c-3.9992,0.3018-2.3199,0.338-6.3313,1.2354c-0.1981-4.4491,12.0723-0.7221,12.5093-4.2507
				c-0.416-1.6602-6.6564,0.4544-5.782,0.4572c1.1984-0.4135,7.9683-6.1405,3.7312-5.3992
				c0.5971,0.7706-7.5566,8.7833-8.3491,5.3145c-1.5822,0.6923-5.7891,2.3227-6.1554,3.2586
				c-0.7264,1.8557,3.0303-0.4866,2.7393-0.3937c-4.1344,4.072-23.4947,5.0785-11.7397,1.0959
				c-0.7337,1.3555-1.9132,2.1478-3.5385,2.3766c1.2786,1.8942,13.3026-2.227,13.1963-4.8478
				c-1.5934-1.394-19.0769,2.5253-20.6649,4.1682c0.1398,0.046,2.8409,0.3459,3.5695,0.6373
				c-2.5582,1.257-2.0938,1.2312-5.1561,1.5994c0.8047-0.9929,0.1049-0.8173-2.0995,0.5269
				c8.5773,1.2084,0.1659,1.8279-3.6279,2.4977c0.4109-0.1936,6.5662-5.8004,6.5386-5.9294
				c-0.6769-3.1623-16.7459,4.8965-19.8773,6.3962c0.7839-0.0109,1.5678-0.0217,2.3517-0.0326
				c-3.7687,3.646-14.2909,8.7125-19.8375,10.3292c0.7803,0.1497-8.9244,3.433-8.9661,3.2736
				c4.2214-2.2679,3.8591-3.2623,8.0518-4.5773c0.3081,2.7318-2.5536-3.5275-0.7787-3.291
				c-1.1118,1.8392-2.6056,3.2707-4.4814,4.2946c0.9333-1.0114,1.6984-2.1387,2.2953-3.382
				c-4.3254,1.8735-6.7704,11.452-7.6481,10.4272c0.5813-0.8637,2.0315-7.9529-1.3298-5.6879
				c-1.566,2.7947-4.4997,4.9838-4.9868,8.5135c3.5909-1.7978,5.0196-5.2401,3.4058-2.8873
				c0.3539-0.6276,1.9221-1.5283,2.0728-1.9069c-3.3743,4.9609-1.6321,3.6754-8.5717,7.4941
				c1.0428-1.0453-1.0667,1.041-2.4885,3.8379c-2.9384-1.3956-3.6033-1.8866-5.3536,2.2785
				c0.1902-0.8013-0.2815-0.5904-1.415,0.6327c-0.3978-2.2348,1.9217-5.2048,1.7463-7.649
				c-5.8848,6.5097-1.0149,1.0808-1.9653,2.1473c7.2077-4.3776,8.5399-15.0787,14.0565-21.8145
				c-2.05,0.0562-8.4147,9.6747-8.7319,9.1581c0.5375-0.1508,0.9322-0.5032,1.184-1.0575
				c0.4875-1.3812-6.9798,10.2314-6.1589,6.5958c-0.9691,1.2452-2.0335,2.4016-3.1931,3.4691
				c3.4845-6.0988-0.6616,0.2986-1.2237,3.3149c0.2958-0.4408,0.5997-0.8759,0.9117-1.3055c-1.0146,2.0507-2.2642,3.95-3.749,5.6981
				c-0.1703-0.5069,1.6588-7.6714,1.533-7.3802c-0.3156,1.0732-0.919,1.8885-1.8102,2.446
				c-0.5539-3.6897,6.7999-13.3169,5.3539-10.046c0.3757,0.2185,1.8628-3.9112-0.804-1.9769
				c2.0479-4.0519,4.1786-1.9816,6.248-6.5891c-0.9971,0.7368-0.5754,0.3032,1.2651-1.301c-2.2903,3.5061-0.14,0.1929,0.5262,1.1234
				c1.1745-2.8115,3.2564-5.7308,5.1442-8.0366c-1.2528,0.8071,4.506-1.781,4.3688-3.2194c0.1743-0.0213-1.7454,4.5234-1.0746,4.583
				c3.2538,0.2889,5.2299-6.189,6.9569-7.905c-5.3144,0.8704,16.7742-6.5568,13.2862-6.1854
				c0.9187-1.2232,0.9574,4.1401-0.8179,2.6599c5.3381,1.5234,21.3127-3.624,27.473-10.1064
				c-0.5109,0.9701-4.5813,7.1058-5.7039,4.6481c0.8257,0.1967,1.3301,0.7021,1.5131,1.516
				c5.164-1.8015,9.5259-4.8198,9.4802-6.5904c-0.0602-2.3349,20.3816-3.3834,21.0408-3.8964
				c2.2028-1.2976,6.1879-3.662,4.893-3.3176c3.4957-1.1976,21.6528-2.0078,22.5416-3.4955
				c-0.4389-1.3522-1.2881-1.6588-2.5475-0.9199c1.1422-2.7378,3.1591-4.5391,6.0505-5.404
				c-0.4818,0.421-2.7598,1.9847-3.8696,3.3367c3.0496-0.6607,5.3995-0.1643,7.9171-1.0472c2.2424,0.9418-5.4286,6.389-4.5648,7.249
				c4.1251-0.7803,11.345-8.2275,13.1968-11.3348c-3.1118,1.2578-6.246,2.457-9.4027,3.5974
				c2.7039-3.1212,5.036-4.857,9.2842-5.7509c-1.7666-0.1408,7.0691-3.4289,3.8497-0.8821
				c4.9993-4.2057,8.3037-4.2305,12.8632-7.3444c0.5151,1.1847,0.0455,2.1368-1.4089,2.8565
				c3.6585-0.9796,7.3195-3.0359,6.7744-4.812c0.6292,0.7108,5.0821-2.585,6.5577-2.2283
				c-1.6511,1.1458-3.3592,2.1983-5.1244,3.1575c2.0718-1.4221,9.9241-2.1561,10.385-2.37
				c5.1885-3.1644-6.0892-2.3658-3.6854-1.7909c1.2469-0.5238,4.388-0.7876,5.5721-1.9031
				c-1.1537,0.0265-1.978-0.4745-2.4728-1.5029c1.9473-3.2444,3.5231-0.999,5.8279-3.3235
				c-1.6086,4.6879,0.0804,3.2908-3.5179,5.9385c2.2137,2.0844,1.2964-2.0867,1.5037,2.1826
				c6.1906-1.1778,4.5839-10.3524,8.5611-12.4903c-0.3737,3.4995,0.558,7.2741,0.6461,10.7992
				c4.2598-2.1603,8.6049-4.1329,13.0355-5.9178c2.3499,1.2605-3.6726,4.1406-3.95,4.3824
				c1.3874-0.5449,1.9337-1.4488,1.6387-2.7115c-2.94,1.48-5.6078,3.3481-8.0037,5.6046c2.9408,1.6481,9.4495-2.7906,11.8799-3.8202
				c0.8964-1.517-0.0012-1.35-2.6925,0.5012C860.8956,651.8745,869.1067,644.1326,868.8215,645.0458z M997.2926,559.8253
				c-0.0412,0.1882-0.0448,0.3754-0.0023,0.5747C997.2455,560.1927,997.093,560.1506,997.2926,559.8253z M829.0865,669.9919
				c2.9692-1.1164,5.9384-2.2328,8.9076-3.3492c-2.6449,0.8566-4.8504,0.4341-6.6165-1.2674
				c1.8915-0.7595,3.5473-1.8286,4.9673-3.207C828.6635,663.583,828.5746,669.7631,829.0865,669.9919z M825.2211,666.8738
				C822.3762,667.5908,825.1934,669.2068,825.2211,666.8738C823.4557,667.3187,825.2173,667.1995,825.2211,666.8738z
				 M824.3282,668.7153c0.1909-0.0684,0.3586-0.1152,0.4699-0.087L824.3282,668.7153z M856.1906,654.1571
				C855.0698,655.0078,859.4972,652.4905,856.1906,654.1571C856.126,654.2062,856.736,653.8823,856.1906,654.1571z
				 M852.3538,654.6899C853.6555,656.2902,853.5943,654.6815,852.3538,654.6899
				C852.3538,654.6899,852.9226,654.686,852.3538,654.6899z M840.488,657.1049c-0.8633,1.1277-1.5078,2.3676-1.9336,3.7197
				C838.5907,664.1205,844.6522,650.6694,840.488,657.1049C840.3268,658.455,840.876,656.5054,840.488,657.1049z M695.5797,713.2764
				c-2.2101-1.3225,6.9379-5.0627,9.2767-3.9172C702.9012,710.1235,696.8804,711.7141,695.5797,713.2764
				C695.4683,713.2097,697.3538,711.1454,695.5797,713.2764z M723.1396,703.3403c0.283-0.2058,9.0371-5.7087,11.7666-6.3699
				c-1.6315-0.6719-3.3289-0.9283-5.0925-0.7693c1.2317-1.5403,2.514-0.2021,3.4688-2.2565
				c-2.6034-1.9516-5.9903,1.4333-7.3496,3.1766c0.973-0.0247,1.946-0.0494,2.9189-0.0742
				c-1.9808,0.3636-3.8633,1.017-5.6475,1.9603c1.1086,0.6516,2.0338,0.4348,2.7755-0.6505
				c-0.8239,0.6039-0.9026,1.2237-0.236,1.8592c-1.977,1.5836-8.6856,2.7906-10.5427,2.7862
				c3.6286-1.791-9.4521-4.153-7.5002,2.1414c1.2528-0.9642,2.459-1.9835,3.6186-3.0577c-0.8805,1.178-1.7463,2.3667-2.5975,3.566
				c2.9961,0.0869,0.8044,0.0613-0.3065,2.1789C713.8147,705.473,717.8468,705.1085,723.1396,703.3403
				C722.9182,703.5015,720.4026,704.2548,723.1396,703.3403z M796.5065,683.6388c-7.7381-6.378-12.1122,3.3385-19.6983,2.4575
				c1.3256-1.0103,2.3104-2.2919,2.9542-3.8447c-1.4749,0.1652-3.221,1.0209-4.8711,1.4326
				c1.2513-0.4659,7.8691-1.8807,9.2499-2.7232c-0.8526-1.5046-5.0584-0.9766-6.4443-0.2406
				c0.4846-0.7831,0.7824-1.6307,0.8934-2.5428c-0.8453,0.398-1.6982,0.7788-2.5588,1.1424c1.4785-0.4393,1.8419-1.2521,1.09-2.4384
				c-0.7593,0.695-5.7891,3.6102-6.9081,3.6569c1.5209,0.8643,2.7251,0.395,3.6125-1.4078
				c-0.9402-0.6308,2.3573,3.1304,2.8481,1.653c-4.4088,4.3218-10.9603,6.7315-17.8564,8.1664
				c0.8046-0.2623,1.5453-0.1829,2.2221,0.2383c-1.2811-0.1309-3.7431,1.1206-4.6112,1.6566
				c1.0068-0.4124,1.6102-1.1306,1.8102-2.1547c-6.8486,0.4272-1.921,1.5731-1.9473,4.0851
				c-2.2792,0.7902-4.5583,1.5804-6.8375,2.3705c3.2595-3.3126-5.5699,0.789-6.2447,1.3924
				c-2.4708-1.1028-2.0294-0.4478-5.3439,2.3379c10.9567-1.6833,19.9252-7.9366,28.8826-8.2521
				c-1.0895,0.3602-2.179,0.7204-3.2686,1.0806c1.5914,0.3643,2.3594,1.1903,2.3038,2.478
				c0.4677-3.1172,11.9113-3.5474,14.1901-5.0723c-3.1679,1.9105,3.1601,0.2197-0.6342,1.6885
				c0.4512,0.0711,6.6003-3.2614,4.0121-2.1284C781.6725,689.4051,793.9642,684.9599,796.5065,683.6388
				C794.3696,681.8775,795.6154,684.1019,796.5065,683.6388z M804.4656,679.2615c2.0195-1.1093,2.5696-1.3403,4.2348-2.9417
				c-2.102,0.2682-2.4834-0.3201-1.1443-1.7646c-0.1923,1.8501,0.8254,2.1136,3.053,0.7906
				c2.9857-1.0365-2.0295-1.4943-2.4271-1.0684c-0.3125,0.5679,13.1448-5.6427,7.456-3.9138
				c4.3549-3.809,0.8693,2.2131,5.9129-0.6802c-0.9079-0.2008-0.7065-0.7109,0.6041-1.5302
				c-1.7498,1.2759,0.3461-3.1924,0.6337-2.8646c-2.1432,0.5677-6.7622,4.6646-5.0942,3.2874
				c-4.9951,3.4786-19.848,4.2445-13.2708,7.6038C801.8412,676.9147,803.3112,677.6928,804.4656,679.2615
				C805.2374,678.8376,803.7139,678.24,804.4656,679.2615z M852.9321,668.1099
				C853.1666,668.0574,852.8932,668.1155,852.9321,668.1099C852.9568,668.1043,852.9321,668.1099,852.9321,668.1099z"/>
			<path fill="#202020" d="M675.4699,737.376c0.0043,0.7089-0.8207,1.9042,0.0298,2.0874
				C674.7125,739.0253,676.7533,737.2069,675.4699,737.376z"/>
			<path fill="#202020" d="M673.7869,738.4013C674.2811,739.1708,675.498,738.3644,673.7869,738.4013
				C673.9155,738.6015,673.7869,738.4013,673.7869,738.4013z"/>
			<path fill="#202020" d="M667.4871,736.9852c0.7182,10.2328-2.0413-1.6289-1.415-0.8944
				c-0.8155,2.1583-1.2145,4.3892-1.1971,6.6926C666.861,741.3108,667.7318,739.3781,667.4871,736.9852
				C667.5752,738.2405,668.1893,737.4388,667.4871,736.9852z"/>
			<path fill="#202020" d="M665.7683,734.4092C665.2764,737.2236,665.5742,735.52,665.7683,734.4092L665.7683,734.4092z"/>
			<path fill="#202020" d="M701.982,724.2824c0.473,0.5131,0.8107-0.5005,1.1051-0.8848
				C702.7566,723.5558,702.226,723.6797,701.982,724.2824z"/>
			<path fill="#202020" d="M977.2473,592.0583l9.3097-7.5662C983.8694,586.6552,981.3441,588.592,977.2473,592.0583z"/>
			<path fill="#202020" d="M733.8897,706.231c-2.2205,1.408-4.4409,2.816-6.6613,4.2239
				C730.803,710.539,735.4265,704.9333,733.8897,706.231z"/>
			<path fill="#202020" d="M734.3472,711.7912C733.4746,710.6593,734.7455,707.643,734.3472,711.7912
				C733.4943,710.6848,734.3472,711.7912,734.3472,711.7912z"/>
			<path fill="#202020" d="M714.0703,695.9438C715.407,693.7128,714.3586,695.4626,714.0703,695.9438L714.0703,695.9438z"/>
			<path fill="#202020" d="M747.7405,707.044C746.9124,706.678,751.2939,708.6142,747.7405,707.044L747.7405,707.044z"/>
			<path fill="#202020" d="M747.2057,707.7859l0.2667-0.3735L747.2057,707.7859z"/>
			<path fill="#202020" d="M714.3652,692.8909C711.7865,693.9495,712.1019,693.8201,714.3652,692.8909L714.3652,692.8909z"/>
			<path fill="#202020" d="M729.084,695.425l-1.1417,0.764C728.1695,696.0388,730.0364,696.0469,729.084,695.425z"/>
			<path fill="#202020" d="M757.3744,705.2022C761.2746,702.4529,756.7537,705.6397,757.3744,705.2022L757.3744,705.2022z"/>
			<path fill="#202020" d="M738.0485,689.2881c-1.1242-0.737,2.4589-0.9073,0.4398-1.2956
				C736.9236,688.5514,737.7051,688.8862,738.0485,689.2881z"/>
			<path fill="#202020" d="M758.1019,691.1759c0.2048-0.0521,0.4119-0.1414,0.5922-0.3013
				C758.4568,690.9789,758.2621,691.082,758.1019,691.1759z"/>
			<path fill="#202020" d="M758.1019,691.1759c-0.6613,0.1685-1.4163-0.0309-1.7986,0.3627
				C757.2381,691.764,757.4973,691.5236,758.1019,691.1759z"/>
			<path fill="#202020" d="M765.5774,688.9014C762.4105,690.9502,765.5966,688.9229,765.5774,688.9014
				C765.5774,688.9014,765.9118,689.2769,765.5774,688.9014z"/>
			<path fill="#202020" d="M798.8093,695.9422c-4.2449,0.749-2.5748,0.0767-5.7708,2.0427
				C794.9828,697.3627,796.9064,696.6818,798.8093,695.9422C796.4398,696.3603,796.0137,697.1889,798.8093,695.9422z"/>
			<path fill="#202020" d="M793.0385,697.9849c-0.2638,0.1108-0.5157,0.2167-0.8225,0.3456
				C792.5741,698.2326,792.8245,698.1135,793.0385,697.9849z"/>
			<path fill="#202020" d="M754.687,683.1151C756.8823,679.6083,755.0502,682.535,754.687,683.1151L754.687,683.1151z"/>
			<path fill="#202020" d="M802.2754,695.169c-0.4336,0.0963-1.0902,0.3568-1.5078,0.22
				C800.9095,696.1581,802.7081,695.0714,802.2754,695.169z"/>
			<path fill="#202020" d="M788.7442,683.824c-0.3723-0.3724-1.6693,0.3685-2.2917,0.3891
				C787.2925,684.0318,788.4098,685.1517,788.7442,683.824z"/>
			<path fill="#202020" d="M807.4919,689.7578c-0.4246,0.1119-1.2329-0.1307-1.1884-0.8328
				C805.8481,689.507,805.5259,691.0891,807.4919,689.7578z"/>
			<path fill="#202020" d="M792.7557,682.6022C792.0856,682.8816,788.8488,684.2314,792.7557,682.6022L792.7557,682.6022z"/>
			<path fill="#202020" d="M783.8326,673.6231c-0.5515,0.5878,2.4295,4.7609,2.4064,2.4467
				C786.235,675.6655,784.0218,671.7383,783.8326,673.6231C782.493,675.051,783.7919,674.0286,783.8326,673.6231z"/>
			<path fill="#202020" d="M786.5955,674.6289c0.2437-0.0313,0.499-0.09,0.7679-0.1779
				C787.0532,674.511,786.8062,674.5702,786.5955,674.6289z"/>
			<path fill="#202020" d="M811.5619,671.5529c-0.2004,0.1816-0.3233,0.3407-0.4315,0.5003
				C811.2883,671.9104,811.431,671.7539,811.5619,671.5529z"/>
			<path fill="#202020" d="M794.8676,670.967c-6.2597-0.6956,5.5941,2.6584,2.6962-1.9634
				C793.9114,670.5405,793.0127,671.1949,794.8676,670.967z"/>
			<path fill="#202020" d="M832.4597,682.5543C831.749,685.313,832.6053,682.2753,832.4597,682.5543
				C832.4597,682.5543,832.8342,681.8365,832.4597,682.5543z"/>
			<path fill="#202020" d="M833.2877,682.9959l-0.2728,0.0867C833.0862,683.0887,833.1746,683.0651,833.2877,682.9959z"/>
			<path fill="#202020" d="M807.179,673.9643c-0.8267,0.2169-1.4457,0.4965-2.0792,1.0047
				C805.4927,675.0957,807.5563,674.5552,807.179,673.9643z"/>
			<path fill="#202020" d="M839.1642,677.3281C834.9344,680.2238,839.4091,677.1605,839.1642,677.3281L839.1642,677.3281z"/>
			<path fill="#202020" d="M848.3224,675.5681C849.3592,674.8393,851.0955,673.6188,848.3224,675.5681L848.3224,675.5681z"/>
			<path fill="#202020" d="M826.3964,656.0395c-2.8991,1.0225-0.8683,2.1907,1.0121,0.9522
				C824.9707,655.2401,826.0182,660.7276,826.3964,656.0395z"/>
			<path fill="#202020" d="M905.7402,641.595c-0.377,3.4379-4.24,0.2977-2.8845,0.1384c0.8834-0.542-2.7708,4.7912-2.073,2.0522
				c0.7465-1.3804,1.6431-2.6555,2.6898-3.825c-1.8606,1.4183-3.6755,2.8929-5.4446,4.4238
				c3.8925-1.4734-1.0694,3.5593-1.6124,5.1589c1.1238-0.6299,11.3355-6.8834,10.0861-5.1076
				c5.0195-8.2828,22.0713-15.1763,29.4849-20.1735c1.2567-0.6337-5.4713,2.1805-5.6718,0.9605
				c3.6197-6.5139-5.2604,1.3846-5.2158,1.3594c-3.7736,4.1096-9.7254,6.4736-15.1227,10.6611
				c0.4521-0.7889,0.9042-1.5779,1.3563-2.3668C909.7389,635.3092,903.2224,640.0333,905.7402,641.595
				C905.6402,642.5065,905.2914,641.3166,905.7402,641.595z"/>
			<path fill="#202020" d="M898.0279,644.3843c-0.3205,0.1195-0.6636,0.2917-1.0305,0.5569
				C897.3911,644.7507,897.718,644.5665,898.0279,644.3843z"/>
			<path fill="#202020" d="M937.4858,623.2427l-1.4993,1.0193C936.4907,624.0058,936.9876,623.6956,937.4858,623.2427z"/>
			<path fill="#202020" d="M891.3945,651.0985c-0.1246,0.0064,0.3159,2.1061,3.1518-0.4449
				C892.9573,648.1921,893.8088,650.8474,891.3945,651.0985z"/>
			<path fill="#202020" d="M895.9485,650.7666C895.6622,648.2069,894.1243,651.3661,895.9485,650.7666
				C895.9121,650.4418,895.0801,651.052,895.9485,650.7666z"/>
			<path fill="#202020" d="M883.9449,631.2855C884.6106,630.7099,886.7996,628.8173,883.9449,631.2855L883.9449,631.2855z"/>
			<path fill="#202020" d="M894.0754,627.4146c-1.033-0.1251-2.0925,1.1119-2.4485,1.5258
				C893.1341,627.9822,892.6049,628.6009,894.0754,627.4146z"/>
			<path fill="#202020" d="M888.5862,622.6219C891.0379,620.0322,889.2977,621.8704,888.5862,622.6219L888.5862,622.6219z"/>
			<path fill="#202020" d="M946.1088,612.1321c0.2213-0.1832,0.4356-0.3605,0.6595-0.5458
				C946.445,611.8053,946.2531,611.9763,946.1088,612.1321z"/>
			<path fill="#202020" d="M934.2704,621.4059c4.1356-1.2842-1.5019,2.4491,0.28,2.9905c2.1146-2.5189,3.5049-1.1169,2.3087-3.7129
				c6.8121-3.8184,11.4745-6.1353,19.061-11.5053c-0.0034-0.9268-0.3561-1.7055-1.058-2.3362
				c-5.9112,4.114-6.2139,4.306-5.6118,5.8064c-1.624,2.4593-3.8492,4.0599-6.6757,4.8018
				c1.1562-1.0396,3.7643-5.5647,3.5342-5.3182C941.9142,614.9058,937.968,617.9971,934.2704,621.4059
				C938.4292,620.1145,937.931,617.345,934.2704,621.4059z"/>
			<path fill="#202020" d="M975.9018,591.5451l0.0487,0.1364C975.9814,591.5675,975.9731,591.5048,975.9018,591.5451z"/>
			<path fill="#202020" d="M974.4077,592.3932c0.744,1.3212-2.3578,4.4073,1.9326,0.311
				C975.097,592.298,975.0197,593.4801,974.4077,592.3932z"/>
			<path fill="#202020" d="M971.4395,597.4761c0.3575-0.3983,1.1024-3.1052,1.1726-3.5813
				C970.3464,591.0252,971.4255,598.0809,971.4395,597.4761z"/>
			<path fill="#202020" d="M959.0026,605.4919C958.888,605.4075,957.4527,604.3501,959.0026,605.4919L959.0026,605.4919z"/>
			<path fill="#202020" d="M959.1699,604.7476C960.3717,603.2071,960.1713,603.4639,959.1699,604.7476L959.1699,604.7476z"/>
			<path fill="#202020" d="M963.5327,602.2722c0.5294-0.2612,1.0948-0.5789,1.754-1.006L963.5327,602.2722z"/>
			<path fill="#202020" d="M962.0667,602.9261C962.415,602.7782,965.5726,601.4528,962.0667,602.9261
				C962.0667,602.9261,962.5448,602.7252,962.0667,602.9261z"/>
			<path fill="#202020" d="M960.3813,604.073C961.8498,605.3273,964.7745,603.3488,960.3813,604.073
				C961.0651,604.657,960.3813,604.073,960.3813,604.073z"/>
			<path fill="#202020" d="M899.8399,617.1995C902.588,613.48,899.3971,617.7988,899.8399,617.1995L899.8399,617.1995z"/>
			<path fill="#202020" d="M907.7954,613.083c0.238-0.3376,0.3949-0.6299,0.5262-0.9123
				C908.0357,612.4708,907.8448,612.7668,907.7954,613.083z"/>
			<path fill="#202020" d="M910.1165,604.4843c-0.0318,0.004,5.1747,1.8647-0.0379,3.6131c0.4341-0.593,0.3615-1.0529-0.2179-1.3798
				c-0.7957,2.6385,0.3796,1.3525-1.539,5.4531C919.1153,600.8688,910.9626,606.1563,910.1165,604.4843
				C912.116,604.2355,909.5116,603.2891,910.1165,604.4843z"/>
			<path fill="#202020" d="M906.6351,604.3467c-0.7551,0.3705-0.9256,0.5773-1.2654,0.9962
				C905.8584,605.8454,906.0854,604.739,906.6351,604.3467z"/>
			<path fill="#202020" d="M931.1464,606.2926C930.9316,603.4807,930.1343,605.8084,931.1464,606.2926
				C931.1213,605.9653,930.752,606.1039,931.1464,606.2926z"/>
			<path fill="#202020" d="M929.1556,606.8854l0.7607-0.6989C929.6909,606.3088,929.451,606.5179,929.1556,606.8854z"/>
			<path fill="#202020" d="M931.3383,606.3789l-0.1919-0.0863C931.1533,606.3616,931.193,606.4094,931.3383,606.3789z"/>
			<path fill="#202020" d="M968.4729,599.3724c0.2932,0.4692,0.9565-0.4066,1.2903-0.8451
				C969.3876,598.7377,968.7928,598.9381,968.4729,599.3724z"/>
			<path fill="#202020" d="M999.0629,574.5183l1.0031-0.1919C999.6482,574.3085,999.4362,574.3018,999.0629,574.5183z"/>
			<path fill="#202020" d="M1001.5197,553.9714c-0.0425-0.1023-0.0414-0.2147-0.0178-0.3372
				C1001.4688,553.7438,1001.4724,553.8553,1001.5197,553.9714z"/>
			<path fill="#202020" d="M1001.502,553.6342c-0.0445,0.1428,2.8282-2.6749,3.2098-3.1762
				C1003.4013,551.2774,1002.3314,552.3361,1001.502,553.6342C1001.7333,552.892,1001.6697,552.6776,1001.502,553.6342z"/>
		</g>
	</g>
	<g>
		<path d="M435.8606,1433.7559c-1.0794-1.3896-0.2779-3.7665-1.2025-5.3865c-1.1096-1.9442-2.7609-3.4886-3.7545-5.5175
			c-1.8358-3.7484-0.9458-7.8539-2.9403-11.9091c-1.3434-2.7312-2.8973-12.3628-5.3162-13.7496
			c-4.728-2.7107-9.7635-2.214-14.5516-4.9264c-4.6913-2.6575-9.2278-5.7327-12.0496-10.4626
			c-2.5496-4.2736-7.1129-3.9843-9.8278-7.619c-2.6196-3.5071-5.654-9.8324-7.4302-13.9277
			c-1.1618-2.6787-0.826-4.3168-2.8946-6.6152c-1.0229-1.1366-5.6118-2.8993-5.7988-4.355
			c-0.2703-2.1046,2.4281-2.4282-0.0986-4.4139c-1.1588-0.9105-1.9657-2.3949-0.3364-3.4438
			c3.4299-2.2083-1.6898-3.28-3.9897-2.7269c-5.194,1.2488-4.5164-5.0753-4.3667-7.702c0.2757-4.8373-6.8305-7.2083-8.0044-12.0957
			c-1.3596-5.6606-5.3808-10.7356-7.9533-15.9017c-0.8978-1.803-8.5047-13.8726-7.5225-15.1921
			c2.1443-2.8811-1.8117-6.1033-3.1071-9.3032c-3.0247-7.4718-2.7988-10.377,0.323-17.5258
			c0.5561-1.2734-4.5283-12.1063-4.9528-14.6448c-0.6256-3.7411-0.7442-12.3669-2.6119-15.3782
			c-2.0004-3.2252-5.7805-6.0422-7.8641-9.683c-1.2587-2.1993-2.3486-4.4907-3.6549-6.6636
			c-1.2707-2.1138-5.1101-4.7919-5.5341-7.0809c-1.0426-5.6294-1.8846-8.4114-4.8226-13.3098
			c-2.8406-4.736-2.282-10.4067-2.9217-15.6643c-0.4103-3.3726,0.2602-14.5936-3.2996-16.1805
			c-1.8795-0.8379-3.7773-0.662-5.738-0.3124c-3.58,0.6384-7.0167-0.7406-10.6237-0.7028
			c-5.861,0.0616-10.5292,0.8911-16.0859,1.967c-1.9252,0.3728-6.093,2.629-2.2215,5.3019
			c1.6453,1.1357,11.3622,6.2583,11.0417,7.8712c-0.6203,3.1219-5.5599,8.8134-7.3389,11.793
			c-1.909,3.1975,1.693,3.0576,2.6742,5.2278c2.0771,4.593,4.72,9.1481,6.554,13.8141c1.6025,4.0769,5.2196,5.1368,7.2367,8.887
			c1.0365,1.9271,2.1715,3.9091,2.9679,5.9492c1.1688,2.9941,4.1627,4.3475,5.172,7.2063
			c1.2879,3.6479,0.9191,10.2117-0.3099,13.8282c-1.74,5.1199-0.2468,10.4601-0.6754,15.6993
			c-0.4348,5.3141-1.4141,8.7794,1.5992,13.6908c2.2578,3.6797,2.9707,8.0762,3.7671,12.2443
			c1.824,9.5455,3.5218,18.072,6.8877,27.1895c1.0174,2.7559,2.6431,7.5051,3.0176,10.2755
			c0.7387,5.4635-7.9099,5.2518-10.4208,7.9542c-2.1574,2.322-1.617,5.9333-4.3848,7.8684
			c-1.7518,1.2247-6.4025,2.948-7.3326-0.0699c-1.2519-4.0616,0.6643-4.5846-3.3696-4.158
			c-0.5131,0.0543-4.0272-6.6254-4.2532-7.0664c-2.1281-4.1528,0.0574-8.5505-1.4904-12.1721
			c-1.7696-4.1403-4.5395-7.6074-5.3199-12.178c-0.8633-5.0562,1.3019-6.9202-2.714-10.6882
			c-3.4534-3.2404-1.3305-5.4863-1.0039-10.0667c0.3018-4.2336,0.7707-9.4028,0.4891-13.605
			c-0.2835-4.231-3.1991-8.2905-1.45-12.5743c-5.4651-5.321-0.2993-17.2374-11.4214-17.5544
			c-4.3122-0.1228-23.1533-7.0387-20.2915-13.759c4.4137-10.3646,15.7246-0.2329,20.0831-6.8364
			c2.7206-4.1219-0.5803-7.212-1.3348-11.1669c-0.9368-4.9102-0.774-9.7332-2.0596-14.691
			c-1.0268-3.9596-1.035-8.6279-3.109-12.2343c-2.1251-3.6953-5.1268-5.4298-7.9283-8.2478
			c-2.3576-2.3715,1.2809-6.7418,1.917-9.1237c1.6703-6.2546-1.7061-4.0881-5.2858-3.4192
			c-3.8058,0.7112-8.2306-4.0785-10.6879-6.5044c-1.3359-1.3188-7.5024-6.326-7.8411-7.7954
			c-0.5447-2.3632,6.3139-1.3959,1.9653-3.7571c-6.1388-3.3335,2.0197-10.6322,3.6476-9.8082
			c1.5097,0.7642-1.2083,6.2462,4.598,3.9132c7.397-2.9722-4.9993-10.2083-6.0107-11.9908
			c-3.178-5.6014-0.7065-7.3635,4.8521-7.6494c4.1247-0.212,1.1882-5.7017,0.1675-7.2952
			c-2.2434-3.5026,0.5394-3.0903,0.4244-6.1432c-0.0327-0.8662-1.4801,0.5005-1.5357,0.502
			c-0.5325-0.4816-0.6152-1.0597-0.2481-1.7345c1.3362-1.4482,5.9548-1.8746,7.7655-2.4323
			c4.7433-1.4608,8.5317-3.0327,7.6261-8.9115c-1.6179-10.5013-17.4056-0.7673-20.6987-6.0531
			c-3.1025-4.9803-5.5212-2.7771-10.0011-5.2269c-3.2875-1.7979-6.9875-4.0494-9.9659-0.4541
			c-3.566,4.3048-6.8186,8.901-10.419,13.2184c-3.4102,4.0892-4.4256,9.4325-6.6068,14.1587
			c-2.0258,4.3899-1.4778,12.4602-1.729,17.2728c-0.1067,2.0442,0.3178,5.5291-0.7222,7.4562
			c-1.0127,1.8763-3.3818,1.8423-2.7638,4.4993c2.1779,9.3638-7.2489,22.6985-11.3568,30.5902
			c-2.8635,5.501-2.566,7.785-3.2679,13.4506c-0.5245,4.2335,1.8902,5.2938,1.1164,9.4462c-0.6913,3.71,3.1096,3.7507,4.1108,6.9497
			c0.6681,2.1348,1.3347,4.5066,0.2073,6.6437c0.0865-0.1638-2.6508,2.4847-2.2681,3.3684c0.3591,0.8296,4.6613-0.208,5.931,2.1654
			c1.9538,3.6521,0.5905,9.2908,0.9627,13.3635c0.3884,4.2501,3.7766,5.0294,4.9424,8.8381
			c0.6846,2.2366,2.0356,4.1785,3.5134,5.9563c2.5655,3.0858,2.7716-0.562,5.1256-0.0105c1.6609,0.389,1.0059,5.3264,4.9286,5.6339
			c3.7172,0.2915,11.4738,0.7167,14.6824,2.4434c1.2724,0.6847-1.5626,2.4775,0.9281,3.3833
			c2.0999,0.7638,2.6158-2.7628,3.5169-3.7048c3.0525-3.191,6.0857,7.7596,6.4866,8.1736c0.5615,0.5797,2.0505-2.5471,2.4441-0.1705
			c0.6299,3.8037-1.7499,8.278-3.9995,11.1315c-2.3193,2.942-8.0238,0.0359-11.215-0.1525
			c-3.8286-0.2261-4.8365,1.4957-4.0931,5.0994c0.491,2.3794-1.2197,7.709,0.6501,9.3851c2.1889,1.9623,4.1612,4.2887,6.3838,6.2676
			c2.5084,2.2334,9.1455,1.5916,10.941,4.4972c-0.3161-0.5115-3.6673,5.444-3.8036,5.626
			c-2.2739,3.0358-5.1134,2.6764-8.3009,1.2491c-3.5448-1.5872-6.4347-1.6095-10.0875-1.1899
			c-1.4088,0.1617-4.7665-2.5098-6.4724-2.9332c-3.2718-0.8121-4.5751-3.6865-4.1555-6.8569
			c0.3259-2.4633-4.2518-3.184-5.4216-6.0372c-1.4138-3.4482-1.5462-7.9036-4.191-10.73c-3.3459-3.5757,5.4021-6.9884-1.4079-10.174
			c-5.1451-2.4069-11.0873-9.7827-14.4006-14.6918c-1.4331-2.1232-7.3961-7.0211-7.6319-9.1947
			c-0.4819-4.4417-4.1066-4.671-6.5409-7.5243c-2.3099-2.7075-1.5002-7.332-3.1524-10.5292
			c-1.7329-3.3533-6.3094-4.692-7.2726-8.215c-0.7907-2.8922-1.4296-6.024-5.3624-4.9771
			c-1.9261,0.5128-1.0355,2.9421-3.3325,2.8129c-2.4042-0.1353-4.013,0.0115-5.4633,2.2473
			c-1.7019,2.6237,3.7098,9.5331,4.6097,12.1282c1.6131,4.6515-1.5776,3.0477-4.1747,4.9169
			c-2.1093,1.5181-1.3789,10.0111-0.9829,12.2791c0.8716,4.9918-1.2493,5.1405-3.3212,8.192
			c-0.3148,1.0255,0.0775,1.8099,1.177,2.3529c-0.5627-0.4368-2.6715,4.4392-2.7496,4.7026
			c-0.441,1.4873-2.9774,8.2458-1.738,9.5419c2.7574,2.8835,1.7466-1.3798,2.2686,3.7083c0.5196,5.0648,4.0851,0.5607,6.3663,1.265
			c6.8886,2.1268-6.6595,16.186-7.0168,18.0109c-0.6889,3.5192-1.0654,5.0039-4.4199,7.0109
			c-2.816,1.6849-4.3009,3.5082-3.459,6.9938c0.8295,3.4338-0.3373,9.3816,1.3772,12.2246c0.8642,1.208,0.7242,2.303-0.4199,3.285
			c-2.7469,2.4094,0.2002,4.4271,1.498,6.431c2.6637,4.1127-2.2099,21.0366,5.3759,19.2284
			c-1.3307,4.2555-3.0114,4.1674-3.0215,9.2961c-0.0091,4.6436-2.3296,11.9427,0.0159,16.2239
			c1.77,3.2306,4.959,3.7625,4.434,8.2164c-0.2634,2.2344-5.1185,5.7676-4.6654,6.972c0.5259,1.3981,4.5633-3.0687,5.5044-2.27
			c1.3398,1.1372-4.5049,8.1542-5.2151,9.3232c-2.4724,4.0697-3.1656,7.979-3.8605,12.6119
			c-0.7522,5.0144-8.0569,19.8271-3.8652,23.4113c2.739,2.342-2.7987,4.3992-4.1056,6.0184
			c-2.2605,2.8008-0.167,9.3324-3.1378,10.8368c-3.5199,1.7825-2.0975,5.3219-0.7417,8.0475
			c2.0233,4.0674,3.8946,10.2091,6.378,13.7196c1.9323,2.7316,7.4071,1.0822,10.1715,2.8171
			c3.4048,2.1368,7.8239-3.4309,12.0701-2.4594c4.0434,0.9252,8.2271,1.2994,12.1186,2.715
			c3.9263,1.4282,12.033,0.7295,14.9834,3.1207c3.1708,2.5699,3.3717,10.448,3.4504,14.1265
			c0.1386,6.4745-2.2497,11.7616-3.664,17.9135c-0.957,4.1626,0.1507,8.8345-1.299,12.8438
			c-0.7215,1.9952-2.9811,2.7139-3.5522,4.583c-0.5975,1.9557,1.6048,2.7181-0.9386,3.9884
			c-4.4088,2.2023-0.3889,4.4393-1.0112,7.9385c-0.4826,2.713-5.6924,6.9803-4.3664,9.6935
			c1.3345,2.7303,0.718,6.5718,3.5016,8.5093c3.9673,2.7615,2.4653,5.1733,1.1393,10.1411
			c-0.5445,2.0402-3.7186,5.5416-0.2027,6.6018c1.2024,0.3627-3.0969,6.5558-3.1745,7.448
			c-0.3941,4.5305,4.6103,8.9155,1.4998,13.1799c-0.7003,0.9602,3.2968,7.1892,2.9094,10.0442
			c-0.7499,5.5264,0.2834,11.0416,1.5416,16.4081c1.9997,8.5291,2.0523,0.6205,6.8214,2.5918
			c2.3636,0.9769,7.3663,2.8484,9.1327,4.7595c2.5336,2.7413-1.2429,6.9769,0.9359,9.121
			c3.2816,3.2299,5.0119,14.9337-0.7473,16.7294c-4.7582,1.484-0.8211,4.8326,0.4889,6.9041
			c0.6532,1.033,4.8099,10.27,4.3795,10.7928c-0.8067,0.9801-8.1623-0.0028-2.9052,3.8254
			c3.6076,2.6271,7.0121-7.3176,9.9776-5.9537c4.7532,2.1859-6.214,8.9779-1.1688,11.5525
			c3.4964,1.7842,12.6996,2.1466,13.2595,7.3418c0.1863,1.7302,1.182,2.8979,3.0095,2.9227c3.718,0.0502,4.7258,2.8107,8.057,3.7355
			c6.9289,1.9236,13.8477-0.2815,20.8217,0.7045c6.4421,0.9106,12.9761-0.5356,19.7093,0.5171
			c7.8096,1.2211,14.2484,2.1552,22.0873,1.1322c12.3327-1.6094,23.3667-4.582,34.5575-9.3
			c7.8421-3.3063,11.6311-25.3921,2.1185-28.5316c-2.2134-0.7305-3.1974,1.6058-4.7652,1.2283
			c-2.0885-0.5031-5.3288-4.2463-6.4571-5.949c-3.2237-4.8645-10.4655-3.5518-15.1048-1.7562
			c-4.0613,1.5719-8.3651,4.5558-11.1904,7.8784c-3.9332,4.6252-6.26-5.4791-5.7356-5.3778
			c4.9319,0.9536-3.35-12.1655-5.6176-12.3823c-4.3364-0.4143-4.3587-5.0126-7.6141-6.4536
			c-0.7099-0.3143-2.761,0.8518-2.9461-0.3002c-0.3593-2.2354-0.3946-4.6638-0.593-6.9231
			c-0.4173-4.7517,0.2076-8.5258,1.897-12.9059c1.7496-4.5364,0.6753-10.4733,0.2276-15.1677
			c-0.4672-4.8979-0.7444-9.6802,1.0015-14.3855c2.1119-5.6917,1.3142-9.0212,0.795-14.951
			c-0.3116-3.559,0.6345-9.366,1.7163-12.7847c0.4725-1.493,1.6669-8.9083,2.3629-9.4443
			c2.6871-2.0684,3.0609-7.5468,3.0071-10.5934c-0.0891-5.0466,2.1324-9.1069,2.5776-14.0715
			c0.4893-5.4563,0.6077-2.4004,3.831-3.9525c2.9219-1.4069-1.3258-7.9175-1.2809-10.5184c0.0406-1.8223,0.4543-3.5569,1.241-5.2039
			c1.299-2.7571-0.1879-3.7393,0.2097-6.3497c0.4102-2.6931,2.1675-3.6433,1.2188-6.6688
			c-0.5317-1.6959-2.1333-3.6891,0.0286-5.1097c4.523-2.9724,6.7945,0.9661,11.0811-0.0256
			c3.9849-0.9219,2.7021-5.8901,6.1703-7.1798c9.4434-3.5114,18.9542-7.1106,28.5279-10.5796
			c10.5247-3.8135,19.2996-0.969,29.8593,0.9113c4.2262,0.7526,9.9934,1.2664,14.1046-0.4521
			c1.9321-0.8076,2.4666-2.9095,4.54-3.6168c2.4336-0.83,5.1199-1.2938,7.6805-1.4304c9.7489-0.5204,17.2448,6.9462,27.2403,2.7336
			c3.546-1.4944,3.1414-4.5698,5.4866-6.8931c1.6468-1.6313,1.5477,4.0807,4.7259,3.3044
			c9.0715-2.2158,21.1867,0.057,30.5916,0.9658c1.6666,0.1609,4.4082-6.2894,5.7434-7.3802
			C438.1772,1443.7554,439.0724,1437.891,435.8606,1433.7559C435.5044,1433.2972,438.662,1437.3627,435.8606,1433.7559z
			 M217.8147,1297.724c-1.5886-1.5216-4.0077,1.2687-2.9847-2.6372c0.8078-3.0842,4.6022-3.4648,6.7287-5.3458
			C224.8318,1286.8452,225.3825,1297.7961,217.8147,1297.724C216.9592,1296.9044,221.2889,1297.7571,217.8147,1297.724z"/>
		<path d="M317.967,883.4398c-1.5327-4.0029-11.2857,0.0909-14.2154-0.2157c-4.2805-0.4479-14.2971-3.9103-17.1695,1.1512
			c-2.5943,4.5714-7.4931-2.3065-4.8117-3.5964c5.6225-2.705,11.165-5.3915,17.0269-7.675
			c6.0213-2.3456,8.9471-3.4822,11.8021-9.6416c4.0753-8.7922-6.3331-8.2263-10.2809-11.52
			c-4.3066-3.593-0.1832-7.2543-6.9758-9.0265c-2.5562-0.6669-4.516-2.388-5.5826-4.7945c-1.497-3.3777-1.4434-1.9691-3.8048-4.2675
			c-5.4417-5.2963,5.4443-4.8652,6.2075-5.7481c1.6891-1.954,5.4551-4.9212,5.5221-7.7678c0.0483-2.0516-6.0291-2.3851-7.3509-2.867
			c-2.2085-0.8052-15.41-4.3089-14.8807-6.3857c1.0357-4.0634-4.4097-0.3215-5.4143-0.2084
			c-2.9425,0.3315-6.7882-3.5769-9.5636-4.4872c-1.9278-0.6323-4.0235-0.2101-4.3283-2.6607
			c-0.2446-1.9648-0.1988-3.8928-3.0998-2.8739c-2.2355,0.7852-2.0098,4.8795-4.977,4.0831
			c-4.3537-1.1683-8.7318-2.3179-12.9102-4.0342c-2.607-1.0708-3.1902,0.0358-5.0151,1.5981
			c-2.4908,2.1325-5.2476-1.0041-7.9443,1.9413c-2.0155,2.2014-4.997,3.8856-8.0321,3.7594
			c-0.9299-0.0386-7.9211-0.5437-8.1924-1.3342c-0.4081-1.1888,1.7725-1.722,0.6796-3.2615
			c-0.9859-1.3887-4.2291-0.0399-5.2919,0.0883c-2.5477,0.3072-10.4418-2.3933-8.9497,2.8589
			c0.2232,0.7855-9.2455,2.8565-10.6685,2.5848c-1.6599-0.3169-3.6336-3.1461-5.1774-2.6796
			c-2.2278,0.6732-2.0543,3.4827-5.0365,3.5771c-4.0176,0.1273-6.3754-3.4906-10.7065-2.8817
			c-3.2127,0.4517-9.9569,1.6753-12.5538,3.7737c-0.7169,0.5792-1.7602,3.7218-2.5336,3.4208
			c-2.0789-0.809-5.2706-1.845-7.4401-0.789c-6.1429,2.99-13.1672,5.9462-18.5492,10.1741
			c-7.2826,5.7208-12.7935,10.5601-19.491,18.2443c-1.8518,2.1246-2.0381,4.6347-0.2879,6.9319
			c1.8674,2.4511-1.4926,4.6224-1.7594,6.9529c-0.4237,3.7012-7.9464,2.5903-10.356,3.4372
			c-4.011,1.4097-2.8372,7.0616-5.4801,9.6534c-1.7071,1.6741-3.7111,0.424-5.601,1.4919
			c-3.9594,2.2375,0.5359,3.9246,1.1558,6.0516c0.3118,1.0699-0.0006,3.9434-1.5411,4.1671
			c0.3303,1.8478,3.6771,3.2013,1.8334,5.363c-1.6383,1.9209-2.8846,4.2133-5.0299,5.6603
			c-3.4037,2.2956,1.8169,2.4146,1.8465,2.8738c0.1023,1.5883-2.3407,2.6892-1.7927,4.9646c0.4798,1.9924,3.184,0.6468,3.8653,2.489
			c0.6313,1.707-2.0245,8.5563-3.0819,9.6459c-2.8922,2.9802-0.2195,9.4644,0.5866,12.8493
			c0.7693,3.2301-0.4639,6.0907,1.434,8.5221c3.1397,4.0224,1.1765,1.4552,5.3901,2.1844c5.5353,0.9579,4.215,5.0219,6.6154,8.6695
			c1.0505,1.5963,3.0741,2.3005,3.9005,4.0685c0.9982,2.1355-1.6934,2.9762-1.1829,4.9133
			c0.4449,1.6884,3.5142,2.6197,4.6474,3.8936c1.9911,2.2382,3.1011,5.0652,4.4764,7.6818
			c2.8452,5.4131,7.7572,1.9041,11.9852,2.5493c1.6854,0.2572-1.1671,3.8813-1.1177,3.6398
			c-0.4664,2.2827,2.2616,2.4396,2.9441,4.1043c0.793,1.9344,1.7162,3.8368,3.0379,5.4791
			c1.5896,1.9751,4.3879,2.4056,5.6213,4.6061c2.7499,4.9067,6.9056,8.8165,11.9875,11.2308
			c2.1634,1.0278,8.156,4.4743,10.3732,4.4691c1.1047-0.0026,10.3197,3.0275,10.5694,3.5109
			c1.2194,2.3616,4.6529,3.8655,4.6078,6.6784c-0.0608,3.7926-4.6375,8.3786-8.0159,8.4542
			c-4.3376,0.0968-8.8022,2.3647-13.0721,3.8704c-1.8908,0.6667-6.9231,2.1668-7.2339,3.4544
			c-0.9771,4.0477-3.5375,6.9524-5.4491,10.6375c-0.9865,1.9017-2.5854,4.1907-2.7963,6.3851
			c-0.2757,2.8689,1.7432,3.735,0.4951,6.9891c-3.5747,9.3207,5.9816,10.6166,10.7144,16.735
			c2.7744,3.5867,0.3131,10.1467-0.0211,14.2046c-0.6281,7.6285-0.7252,15.5378-2.1031,23.0746
			c-1.9891,10.8801-10.5022,19.4144-12.3027,30.1243c-0.3797,2.2589,0.1099,4.8804-0.537,7.0603
			c-0.5838,1.9669-2.8664,2.7603-3.4122,4.835c-0.5067,1.9261,1.799,2.9824,1.7576,4.8533c-0.0404,1.826-2.6348,4.9261-3.0535,7.236
			c-0.6912,3.8137-5.2537,12.0372-0.4568,14.6833c3.4768,1.9181-1.6688,6.7772,3.052,8.4236
			c5.409,1.8865,6.2045-2.7657,10.7174-4.2354c2.6195-0.853,5.239-1.9053,8.0612-1.7042c3.3843,0.241,3.2386-4.2002,4.3453-6.2972
			c4.2464-8.0461,12.9664,4.1638,16.713-5.9427c4.2169-11.3751,4.9515-22.7076,8.4179-34.265
			c1.6613-5.5391-1.0334-9.9186,1.6241-14.6006c1.6223-2.8583,6.686-14.1278,4.2648-16.8422
			c-3.6168-4.0543-1.4044-10.6162-2.4388-15.3165c-0.563-2.5582-1.9763-4.8094-3.0698-7.152
			c-1.473-3.1555,1.8642-4.7491,2.0636-7.7631c0.1959-2.9607-1.4247-8.3923,2.9398-9.1866
			c6.2186-1.1318,11.9223-5.9431,18.3727-2.7078c1.4249,0.7145,2.5917-0.9894,4.0491,0.5052
			c1.3199,1.3536,1.2464,3.4298,2.022,5.0481c2.5055,5.2277,9.7531,5.1683,14.2024,7.7531c1.3383,0.7775,2.1964-0.3605,3.2894-0.812
			c0.9636-0.3981,4.6474,2.4663,5.7943,2.8135c4.9137,1.4871,12.2844,1.0731,17.1899-0.3629
			c3.9822-1.1656,7.829-4.4464,4.6018-8.7329c-3.721-4.9429-2.9569-7.2322-9.651-8.7247
			c1.9678-4.8584-5.9904-10.3679-9.9593-12.1946c-4.6697-2.1493-6.8249-6.3196-12.2839-7.5461
			c-5.7801-1.2988-12.161-1.3341-17.3028-4.637c-1.9774-1.2703-3.4205-3.481-6.0952-2.3828
			c-1.7292,0.7098-0.2217-1.9125-0.2578-2.3057c-0.3759-4.0907-5.9235-3.0558-2.2405-7.3497
			c2.2749-2.6523,3.5713-6.3555,7.1854-7.5376c3.2323-1.0572,11.7245,1.7199,14.6006,3.3989
			c9.1487,5.3412,21.6946,3.6818,26.4455-5.9475c1.697-3.4395,3.5167-8.8641,8.1421-8.9712
			c2.0108-0.0466,3.9452,1.0164,5.6183-0.6883c1.9397-1.9762,1.4476-4.4222,4.5305-5.4762c1.6959-0.5798,3.5054-0.3997,5.18-0.9728
			c1.9105-0.6538,0.9688-2.252,2.3483-3.1002c2.0364-1.2523,0.2057,4.7728,2.8646,2.2377c1.1253-1.0729,0.5905-3.6615,1.1551-5.0588
			c0.8102-2.0054,2.7674-2.1456,3.8113-3.8292c2.4095-3.8862,6.3817-5.8627,8.9922-9.641
			c6.0735-8.7878-18.4391-7.1929-20.3597-14.4335c-0.4429-1.67,1.4277-3.2186,1.175-5.2463c-0.2873-2.3059-1.0071-4.4851-1.23-6.814
			c-0.5845-6.1075-3.8352-10.4918-9.2101-13.5483c-4.0916-2.3267-9.5525-2.0202-12.9459-5.5495
			c-2.9536-3.0718-8.2915-0.7592-11.7753-2.6724c-1.9645-1.0788-1.8005-4.3759-4.618-4.3038
			c-2.496,0.0638-4.9985-0.2527-7.3795-1.0152c-1.905-0.61-12.8921-5.8115-9.6413-8.1613c1.2948-0.936,10.3947-5.5181,8.6803-7.9628
			c-0.7066-1.0076-4.1888-5.6454-5.5715-5.531c-3.9171,0.3242-5.1317,3.6697-9.4803,1.1142
			c-3.8484-2.2615,6.1287-6.9114,6.7048-7.5561c2.0518-2.2963-0.0617-9.5495,2.8791-10.0726
			c5.9427-1.0571,11.997-0.7068,17.9986-0.8817c3.4581-0.1008,8.1688,3.5009,8.3757-2.865
			c0.1083-3.3322-11.7055-8.1525-14.4479-9.8291c-1.7389-1.0632-5.6227-4.0195-2.8152-6.2117
			c3.6328-2.8368,5.6958-1.9967,9.8311-2.5569c4.0157-0.5439,2.5049-5.0722,5.6239-6.6111
			c1.7459-0.8614,8.3725-3.6282,9.9821-2.0785c2.1338,2.0544,2.7778,5.6754,4.6339,8.0376
			c2.8535,3.6316,7.5004,6.2453,11.5906,8.2183c2.0909,1.0086,9.4374,2.2098,9.1329,4.8972
			c-0.5506,4.8582-0.567,5.5308,1.9025,9.6267c1.2949,2.1478-0.4286,6.4398-1.3533,8.4041
			c-1.3484,2.8647,0.1365,6.6855,1.6133,9.1832c2.1908,3.7051,14.4012,10.154,15.8171,3.2426
			c1.5484-7.5587,15.8809-3.826,21.4498-4.3207c4.1187-0.3658,8.2232-1.355,11.7932-3.5095
			C311.8392,891.1285,318.9833,886.0936,317.967,883.4398C317.4023,881.9648,318.5342,884.9209,317.967,883.4398z"/>
		<path d="M302.1053,1137.7299c-2.7254-0.1067-5.2251-0.2177-5.5308-3.4163c-0.4327-4.5278-3.6994-6.5424-5.1971-10.6653
			c-3.5645-9.8125-7.7177-17.9835-2.5485-28.0203c4.3069-8.3622-3.7518-13.3733-4.8182-20.5658
			c-1.221-8.2346-5.6744-14.9336-9.4777-21.9415c-4.251-7.8329-5.5954-15.5697-12.7832-21.9391
			c-2.9166-2.5845-6.6951-4.3245-8.8233-7.7168c-2.3338-3.72-8.062-0.6149-10.5888-4.5038
			c-1.778-2.7365-6.6062-4.4803-7.1394-7.7337c-0.2895-1.7664,3.4755-7.5302,4.8082-4.7454
			c1.8915,3.9528,4.0648,1.1348,6.702,0.2061c5.2421-1.8459,11.0147-2.3659,16.4619-3.3682
			c4.6123-0.8487,4.4319-3.3347,7.6537-5.6744c2.295-1.6667,6.1878-1.2974,8.9725-3.3105c3.8389-2.775,7.3435-6.7202,9.5804-10.9026
			c2.0664-3.8636,4.9345-6.1904,7.3714-9.6667c1.987-2.8346,5.1638-3.2627,8.3175-3.7921c3.8595-0.6479,3.9588-4.9732,7.5982-5.4365
			c4.5283-0.5766,5.5043-4.5319,9.0563-6.2579c6.4376-3.1283-1.3968-4.5794,1.1044-8.4723
			c4.3027-6.6968,18.5106-3.6467,24.9109-8.2061c3.8156-2.7181,7.1732,1.5324,11.0873,1.6302
			c4.6281,0.1157,4.0517-5.113,7.1979-5.2821c0.3986,0.4763,0.8921,0.7973,1.4804,0.963c1.2947-0.1333,1.5441-2.0389,3.1585-2.3105
			c1.8992-0.3194,3.6273-0.1078,5.464-0.9386c1.5248-0.6898,2.6088-4.0663,4.7186-2.8737c2.8036,1.5848,2.4193,5.7264,6.4895,3.0958
			c1.5009-0.97,10.5193-0.13,10.6999-1.041c0.3051-1.5395-5.0262-0.4219-1.506-3.3008c2.4544-2.0073,4.9715,0.6164,6.494-3.4097
			c2.9502-7.8016,12.239,0.6548,15.0075-4.3824c1.2234-2.2255-1.3743-1.4203-0.3601-3.9601
			c1.5758-3.946,4.6477-3.2734,7.7039-5.5032c2.7601-2.0138,4.4327-6.8689,7.9628-7.5477c4.8212-0.927,4.495-1.1197,6.2354-5.8854
			c2.4453-6.6956,6.6057-14.7247,11.2189-20.2395c2.6108-3.1211,5.0287-2.4196,5.3555-6.1086
			c0.2207-2.4921,4.9536-6.1156,6.5243-7.6946c3.2211-3.2383,6.8136-6.1334,10.8702-8.2624
			c2.2477-1.1796,2.744-5.3035,5.2427-6.9747c2.6882-1.7979,6.5965-2.3954,6.777,1.9906
			c0.1812,4.4017-8.5641,11.9957-7.4724,15.0044c0.4756,1.3107,13.2353,0.4782,5.5757,5.5833
			c10.25,3.4259-8.1307,13.7133-6.4645,15.4474c5.5956,5.8213-8.5548,15.0748-12.4056,17.4014
			c-2.5692,1.5524-4.9852,7.0044-6.4557,9.7072c-2.4579,4.5173,2.3498,5.6261,5.2617,7.5287
			c4.9018,3.2028,4.6707,18.5147-3.0252,17.9468c-11.4773-0.8469-18.9118-5.3771-30.079,0.0502
			c-5.5677,2.7059-9.7012,6.8612-14.6749,10.4031c-4.0722,2.8998-6.0124,6.0822-9.7231,9.0946
			c-2.7738,2.2518-6.063,9.5715-10.2898,6.7252c-2.6611-1.792-5.8128,5.5104-7.4318,6.4196
			c-3.6273,2.0372-8.4633,1.3434-12.4554,3.6497c-4.4052,2.5449-9.0291,4.4623-12.5929,8.2372
			c-7.7084,8.1652-16.5918,13.6008-25.9919,19.7147c-4.2935,2.7925-9.5771,3.9069-13.393,7.4605
			c-2.4883,2.3172-3.1829,6.2001-6.6953,7.0574c-10.332,2.522-21.2624,13.7448-28.6289,20.9636
			c-2.3413,2.2944-11.2545,9.449-5.2072,12.2843c1.6225,0.7607,8.5323,4.7032,8.5696,6.564
			c0.0901,4.494-0.2837,2.8046,3.0991,6.3955c2.622,2.7833-1.7703,6.0281,1.2843,7.1122c5.4816,1.9456,0.9235,4.7156,4.4316,7.3911
			c4.4966,3.4293,4.8051,5.4161,4.8493,10.957c0.0431,5.399-9.2304,24.5743,2.6393,25.2368
			C312.6775,1118.1465,307.3166,1138.6379,302.1053,1137.7299C297.0994,1137.5339,304.1433,1138.085,302.1053,1137.7299z"/>
		<path d="M282.3748,1244.2217c0.5522,5.2605,2.5264,10.9626,3.9153,16.1077c1.8095,6.7031,0.6733,13.927,2.6006,20.3994
			c0.8709,2.9248,2.5345,5.265,2.8461,8.3939c0.2814,2.8267-1.9097,6.5822-1.1047,9.1385c0.665,2.1117,3.6069,3.1837,1.2947,5.7893
			c-1.9945,2.2478-4.4473-1.8728-5.1768-3.0732c-3.4189-5.6257-3.486-12.6382-5.0795-18.8772
			c-0.7964-3.1178-3.5544-7.114-3.2761-10.3251c0.3568-4.1171,0.0802-7.4656-0.4146-11.6136
			c-0.8927-7.4839-3.9307-15.302-2.5934-22.8755C276.6191,1230.3049,283.0257,1240.1084,282.3748,1244.2217
			C282.3959,1244.4236,282.9322,1240.6996,282.3748,1244.2217z"/>
		<path d="M240.1925,908.7782c-4.38-0.2116-6.9841-5.5986-11.5295-5.4232c-4.6335,0.1787-8.7983-5.1356-8.7371-9.4796
			c0.078-5.5327,10.8098-7.3638,14.9612-5.4246c4.3602,2.0367,9.121-2.3834,13.528-0.3356
			c2.7907,1.2967,5.2504,6.0611,0.7906,6.6098c-4.826,0.5936-7.9612,3.5924-3.8106,7.8223
			C250.4651,907.7142,244.1581,907.7303,240.1925,908.7782C238.3037,908.687,242.4232,908.1887,240.1925,908.7782z"/>
		<path d="M262.9848,955.0894c-7.5963-1.5607,0.5035-5.5493-1.115-8.1991c0.0723,0.1184-8.1142-1.7378-3.6197-4.5316
			c3.1023-1.9283,11.8068-6.1503,15.5203-4.3041C278.744,940.5274,269.1348,956.6228,262.9848,955.0894
			C261.8793,954.8622,265.1906,955.6393,262.9848,955.0894z"/>
		<path d="M264.8408,921.2993c4.1212,0.0439,9.2531-4.6106,11.8018-0.4744c4.1638,6.7573-8.5608,10.7002-13.1671,9.2255
			c-3.6407-1.1656-5.5395-1.9363-8.4722,1.1259c-1.9551,2.0416-3.2158,0.5288-1.1422-1.2186
			c2.5546-2.1528,2.7144-5.5585,4.9243-7.674C260.4231,920.7161,262.8863,921.7208,264.8408,921.2993
			C267.5972,921.3286,262.462,921.8123,264.8408,921.2993z"/>
	</g>
</g>
</svg>
